<svg width="76" height="68" viewBox="0 0 76 68" fill="none" xmlns="http://www.w3.org/2000/svg">
<path fill-rule="evenodd" clip-rule="evenodd" d="M33.6621 10.5157C30.2638 7.97584 24.3023 6.57533 18.4521 8.57428C10.9685 11.1313 5.35256 17.0101 5.33564 25.2703C5.33298 26.5697 5.45504 27.7586 5.69219 28.8429C10.2079 21.7275 21.852 14.5291 33.6621 10.5157ZM8.90419 34.6185C11.9905 28.2357 23.733 19.3623 37.2584 15.4753C38.4236 18.645 38.2176 22.311 36.8718 26.149C35.3057 30.6151 32.671 33.9916 29.2561 36.0491C25.6912 37.1545 22.1908 37.938 18.9718 38.2915C14.7845 37.9664 11.3018 36.821 8.90419 34.6185ZM48.7332 26.9966C49.0205 26.6231 49.3443 26.2431 49.7092 25.8561C51.8944 23.5381 54.4008 21.6602 57.0384 20.5276C56.9169 20.6506 56.7934 20.7735 56.6679 20.8965C53.651 23.5086 51.7007 25.0357 48.7332 26.9966ZM46.7621 35.9094C54.5082 31.68 60.8283 26.032 64.5639 19.5438C66.1037 19.8345 67.629 20.4555 69.1053 21.4624C73.9085 24.7385 75.6228 29.3687 75.3846 35.3757C75.1059 42.4056 70.6406 47.3851 65.1985 52.511C58.5949 58.7311 55.3713 61.4652 46.7788 63.7882C41.6272 65.1809 37.7091 65.1062 34.2206 62.6165C32.8805 61.6601 31.7465 60.3699 31.0686 58.7896C31.2701 57.8864 31.7171 57.1116 32.7754 56.4892C33.0286 56.3403 33.0074 55.7868 32.7673 55.6281C31.8033 54.9911 31.2614 53.7108 30.8502 52.4757C31.0313 51.8712 31.2692 51.248 31.5693 50.6071C32.8341 47.9061 34.8387 47.0251 37.0531 46.4084C36.1688 47.4978 35.6592 48.8813 35.74 50.4496C35.8662 52.9023 37.3426 54.7126 39.3662 55.6369C40.1808 56.009 41.0841 56.2375 42.0236 56.3065C42.5704 56.3467 43.1085 56.3178 43.6284 56.2266C46.4958 55.7235 48.8112 53.3247 48.9895 50.1568C49.1772 46.8238 46.6496 44.3941 43.6075 43.9386C44.0769 43.5917 44.5313 43.184 44.9652 42.6985C47.0211 40.3976 46.9555 38.2121 46.7621 35.9094ZM50.1053 42.3458C51.0828 41.4442 51.8153 40.1366 52.2517 38.8882C52.348 38.6127 52.7466 38.6041 52.8354 38.8823C53.2548 40.1959 53.7949 41.6338 54.8182 42.3396C55.0624 42.508 55.093 43.0961 54.8391 43.2478C53.253 44.1953 53.0629 45.4926 52.9952 47.0553C52.9821 47.3563 52.6663 47.415 52.5672 47.1322C52.1042 45.8114 51.3536 43.7799 50.1858 43.0137C49.98 42.8787 49.923 42.514 50.1053 42.3458Z" fill="#B2AB73"/>
<path d="M3.94858 32.8206C7.29616 18.1784 47.8816 0.461298 61.1309 9.97872M3.94858 32.8206L8.07266 43.5005C8.10965 43.5963 8.19537 43.6626 8.29624 43.6732C18.66 44.7588 29.295 43.1505 38.6764 39.6096M3.94858 32.8206C4.7271 34.8298 6.18086 36.249 8.13264 37.1665M61.1309 9.97872C61.1972 10.1274 61.2562 10.2775 61.3079 10.429M61.1309 9.97872L61.3079 10.429M8.13264 37.1665C8.96946 27.6958 38.1185 7.78238 60.9455 15.1035M8.13264 37.1665C16.6003 41.1471 34.4415 35.6852 47.184 28.0018C51.0904 25.5068 53.1569 23.9364 56.6679 20.8964C58.6644 18.9411 60.1519 16.9794 60.9455 15.1035M60.9455 15.1035C61.6413 13.4586 61.8037 11.8798 61.3079 10.429M38.6764 39.6096C39.3477 41.1598 41.1868 41.7908 42.0236 41.6059C42.8605 41.421 43.9712 38.3846 43.6284 37.5061M38.6764 39.6096C37.7538 38.0494 38.7691 35.6416 40.4895 35.3098C41.9384 35.0303 42.9999 35.8954 43.6284 37.5061M43.6284 37.5061C52.8891 33.1104 60.4863 26.7618 64.6894 19.3238C64.7324 19.2476 64.7387 19.1566 64.7073 19.0765L61.3079 10.429M61.6888 18.764L61.8283 20.2283M60.573 21.8389L59.4573 23.1567M46.7656 11.2965L48.8576 11.0036M50.2523 9.68582L52.4838 9.68582M10.5036 41.6059L11.8983 41.6059M14.6877 41.6059L15.9429 41.6059M59.1784 43.9109L59.4573 47.1322M57.9231 45.9795L60.9915 44.3502M43.5502 51.3281C42.3881 51.2339 41.5706 50.0501 41.7371 48.839C41.8517 48.0055 42.2478 47.4454 42.9924 47.1322C44.3776 46.5496 46.1834 48.7625 45.5028 50.1568C45.1023 50.9773 44.4259 51.3991 43.5502 51.3281ZM43.5502 51.3281C42.422 53.3386 41.5624 54.3184 39.3662 55.6369M43.5502 51.3281C43.8683 53.1443 43.9578 54.1925 43.6284 56.2266M39.3662 55.6369C37.3426 54.7126 35.8662 52.9023 35.74 50.4496C35.5578 46.9099 38.3823 44.3118 41.7371 43.9109C45.5293 43.4578 49.2147 46.1569 48.9895 50.1568C48.8112 53.3247 46.4958 55.7235 43.6284 56.2266M39.3662 55.6369C40.1808 56.009 41.0841 56.2375 42.0236 56.3065C42.5704 56.3466 43.1085 56.3178 43.6284 56.2266M52.2517 38.8881C51.8153 40.1366 51.0828 41.4442 50.1053 42.3458C49.923 42.514 49.98 42.8787 50.1858 43.0137C51.3536 43.7799 52.1042 45.8114 52.5672 47.1322C52.6663 47.415 52.9821 47.3563 52.9952 47.0553C53.0629 45.4926 53.253 44.1953 54.8391 43.2477C55.093 43.0961 55.0624 42.508 54.8182 42.3396C53.7949 41.6338 53.2548 40.1959 52.8354 38.8823C52.7466 38.6041 52.348 38.6127 52.2517 38.8881ZM32.7754 56.4892C31.1637 57.437 30.9698 58.7385 30.9015 60.3082C30.8886 60.6031 30.5696 60.6666 30.473 60.3911C30.0066 59.0604 29.2482 57.0088 28.0656 56.2562C27.8652 56.1286 27.8146 55.7853 27.9945 55.6206C28.9783 54.7205 29.7156 53.4089 30.1549 52.1557C30.2504 51.8834 30.6535 51.8661 30.74 52.1371C31.1655 53.4702 31.7148 54.9325 32.7673 55.6281C33.0074 55.7868 33.0286 56.3403 32.7754 56.4892Z" stroke="black" stroke-width="1.40625" stroke-linecap="round"/>
</svg>
