<svg width="32" height="32" viewBox="0 0 32 32"  xmlns="http://www.w3.org/2000/svg">
<path d="M26.2105 7.53949C25.0658 6.39713 23.5151 5.75483 21.8979 5.75319C20.2808 5.75156 18.7288 6.39072 17.5818 7.53076L16.0027 9.00086L14.4235 7.53076C13.2774 6.3861 11.7235 5.74361 10.1037 5.74463C8.48387 5.74565 6.9308 6.39011 5.78613 7.53622C4.64147 8.68233 3.99898 10.2362 4 11.856C4.00102 13.4759 4.64548 15.0289 5.79159 16.1736L15.537 26.0608C15.5979 26.1224 15.6704 26.1714 15.7503 26.2048C15.8302 26.2382 15.916 26.2554 16.0027 26.2554C16.0893 26.2554 16.1751 26.2382 16.255 26.2048C16.335 26.1714 16.4075 26.1224 16.4683 26.0608L26.2105 16.1779C26.7778 15.6108 27.2279 14.9375 27.5349 14.1964C27.842 13.4553 28 12.6609 28 11.8587C28 11.0565 27.842 10.2622 27.5349 9.52108C27.2279 8.77998 26.7778 8.10662 26.2105 7.53949ZM25.2813 15.2553L16.0027 24.6692L6.72076 15.2521C5.82609 14.3511 5.32496 13.1323 5.32713 11.8627C5.32929 10.593 5.83458 9.3759 6.73231 8.47802C7.63004 7.58015 8.84703 7.07467 10.1167 7.0723C11.3864 7.06993 12.6053 7.57087 13.5063 8.46539C13.5116 8.47104 13.5175 8.47616 13.5238 8.48066L15.5566 10.3739C15.6777 10.4867 15.8371 10.5495 16.0027 10.5495C16.1682 10.5495 16.3276 10.4867 16.4487 10.3739L18.4815 8.47956C18.4879 8.47507 18.4937 8.46995 18.499 8.4643C18.9443 8.01638 19.4736 7.66077 20.0566 7.41787C20.6396 7.17496 21.2648 7.04953 21.8964 7.04877C22.5279 7.04801 23.1534 7.17194 23.737 7.41345C24.3206 7.65495 24.8508 8.00929 25.2971 8.45613C25.7434 8.90298 26.0972 9.43354 26.338 10.0174C26.5789 10.6012 26.7021 11.2269 26.7006 11.8585C26.6992 12.49 26.573 13.1151 26.3295 13.6978C26.0859 14.2806 25.7297 14.8095 25.2813 15.2542V15.2553Z" fill=""/>
</svg>
