<svg width="572" height="572" viewBox="0 0 572 572" fill="none" xmlns="http://www.w3.org/2000/svg">
<path fill-rule="evenodd" clip-rule="evenodd" d="M69.9932 171.6C59.1607 193.05 47.3863 245.333 62.8435 288.681C65.8701 297.169 69.572 304.838 73.7468 311.818C80.7049 285.235 88.9927 257.59 97.4184 238.632C105.491 220.469 183.313 191.425 188.327 189.569C188.498 189.506 188.675 189.494 188.854 189.528L226.118 196.694C226.118 196.694 244.887 183.219 252.931 180.538C257.166 179.126 267.57 179.649 281.414 181.406C286.786 166.09 288.888 152.129 286 143.894C280.679 128.723 279.222 133.688 276.875 141.687C275.489 146.411 273.793 152.194 270.806 155.513C262.515 164.725 249.356 162.663 243.993 150.15C239.268 139.125 248.462 124.212 250.25 121.55C256.853 111.719 274.445 107.125 292.256 112.613C313.666 119.21 321.632 138.553 323.537 160.875C324.363 170.549 323.6 179.583 321.655 187.98C360.123 195.232 404.088 205.576 425.425 211.819C464.75 223.326 471.9 329.794 420.956 320.41V405.985C420.956 406.391 420.71 406.757 420.334 406.911L328.946 444.197C370.88 451.005 421.327 446.181 464.137 407.55C495.529 379.222 511.802 354.97 515.08 312.812C518.802 264.951 499.91 220.756 482.012 185.9C457.31 137.794 417.662 112.667 383.699 97.4187C349.737 82.1703 295.219 71.5 245.168 71.5C195.118 71.5 151.324 92.0564 125.406 108.144C99.4871 124.231 80.8257 150.15 69.9932 171.6Z" fill="#B2AB73"/>
<path d="M309.237 452.238L420.334 406.911C420.71 406.758 420.956 406.392 420.956 405.985V320.41M309.237 452.238C312.812 415.594 321.927 309.297 342.306 289.576C370.012 262.763 420.956 234.163 420.956 234.163M309.237 452.238C281.74 451.03 257.625 449.214 235.307 446.414M420.956 234.163L381.631 226.601M420.956 234.163V320.41M226.118 196.695L188.854 189.528C188.675 189.494 188.498 189.506 188.327 189.569C183.313 191.425 105.491 220.469 97.4184 238.632C76.9967 284.581 57.3851 381.567 55.5517 390.76C55.4612 391.214 55.7099 391.6 56.1308 391.792C72.42 399.227 87.5612 405.769 102.014 411.528M226.118 196.695C226.118 196.695 244.887 183.219 252.931 180.538C257.166 179.127 267.57 179.649 281.414 181.407M226.118 196.695C226.118 196.695 198.943 205.391 173.387 220.043M226.118 196.695L270.879 205.302M381.631 226.601C381.631 226.601 324.134 251.517 300.3 281.532C296.98 285.713 293.943 291.226 291.175 297.619M381.631 226.601C392.151 212.154 399.848 206.426 425.425 211.82M381.631 226.601L311.613 213.136M425.425 211.82C464.75 223.326 471.9 329.795 420.956 320.41M425.425 211.82C404.088 205.576 360.123 195.233 321.655 187.98M173.387 220.043C160.382 227.499 147.797 236.497 139.425 246.676C121.89 267.994 110.967 356.839 110.001 364.951C109.953 365.35 110.158 365.673 110.508 365.871C112.178 366.812 113.833 367.732 115.474 368.63M173.387 220.043L168.025 290.154M291.175 297.619C275.237 334.432 268.211 400.422 267.327 409.247C267.272 409.804 266.775 410.181 266.219 410.119C260.847 409.515 255.678 408.907 250.69 408.288M291.175 297.619C275.987 274.179 254.067 273.399 246.708 271.481C245.919 271.276 245.904 270.351 246.64 270.003C255.094 265.999 292.049 247.043 311.613 213.136M256.506 391.463C256.506 391.463 254.358 398.184 250.69 408.288M207.35 306.557C211.585 312.639 212.983 316.536 213.606 324.432M196.625 320.857C205.455 314.906 210.978 312.638 221.65 310.132M300.3 410.232C301.713 415.709 301.376 418.309 300.3 422.744M277.956 437.044C281.173 435.846 283.926 435.761 291.175 437.044M391.462 372.694C391.323 376.305 391.301 378.144 391.462 380.738M403.975 361.075C403.752 364.217 403.722 365.978 403.975 369.119M403.975 384.313C404.427 388.658 404.321 390.244 403.975 391.463M78.6496 361.969C77.5655 363.915 76.759 366.564 75.0746 373.588M84.9059 380.738C83.6987 385.565 82.8919 387.08 81.3309 388.782M168.025 290.154C184.209 274.888 203.472 262.169 226.118 253.825C242.583 247.759 259.146 227.41 270.879 205.302M168.025 290.154C144.105 312.718 126.913 340.845 115.474 368.63M115.474 368.63C109.428 383.316 104.989 397.906 102.014 411.528M172.973 393.294C177.381 385.28 181.15 380.286 184.112 380.738C187.146 381.201 187.792 387.616 187.311 397.259M172.973 393.294C177.651 394.717 182.414 396.032 187.311 397.259M172.973 393.294C167.804 402.688 161.756 416.233 155.094 430.021M187.311 397.259C186.779 407.912 184.873 422.503 183.291 437.362M250.69 408.288C246.932 418.641 241.579 432.546 235.307 446.414M102.014 411.528C93.2925 451.453 97.1399 483.066 109.931 484.413C126.016 486.106 141.78 457.578 155.094 430.021M155.094 430.021C164.49 432.77 173.837 435.204 183.291 437.362M183.291 437.362C179.991 468.35 178.104 500.5 193.05 500.5C207.274 500.5 223.046 473.529 235.307 446.414M381.631 121.55C381.631 121.55 403.975 104.569 411.125 121.55C418.275 138.532 386.1 150.151 386.1 150.151M386.1 164.45V168.025M281.414 181.407C286.786 166.09 288.888 152.13 286 143.894C277.536 119.763 278.85 146.576 270.806 155.513C262.515 164.726 249.356 162.663 243.993 150.151C239.268 139.126 248.462 124.212 250.25 121.55C256.853 111.719 274.445 107.125 292.256 112.613C313.666 119.21 321.632 138.553 323.537 160.876C324.363 170.549 323.6 179.584 321.655 187.98M281.414 181.407C278.676 189.213 275.088 197.371 270.879 205.302M321.655 187.98C319.536 197.122 316.015 205.507 311.613 213.136M401.293 291.111V305.87C401.293 306.284 401.039 306.655 400.652 306.803L356.177 323.909C355.522 324.161 354.818 323.677 354.818 322.976V310.783C354.818 310.387 355.052 310.028 355.414 309.868L399.889 290.197C400.55 289.904 401.293 290.388 401.293 291.111Z" stroke="black" stroke-width="5" stroke-linecap="round"/>
</svg>
