<svg width="20" height="20" viewBox="0 0 20 20" fill="none" xmlns="http://www.w3.org/2000/svg">
<path d="M17.7869 6.87827L10.5145 14.1506C10.447 14.2182 10.3668 14.2719 10.2785 14.3085C10.1902 14.3451 10.0956 14.3639 10 14.3639C9.90443 14.3639 9.8098 14.3451 9.72151 14.3085C9.63323 14.2719 9.55302 14.2182 9.48548 14.1506L2.21312 6.87827C2.07666 6.74181 2 6.55673 2 6.36375C2 6.17077 2.07666 5.98569 2.21312 5.84923C2.34958 5.71277 2.53466 5.63611 2.72764 5.63611C2.92062 5.63611 3.1057 5.71277 3.24216 5.84923L10 12.608L16.7578 5.84923C16.8254 5.78166 16.9056 5.72806 16.9939 5.6915C17.0822 5.65493 17.1768 5.63611 17.2724 5.63611C17.3679 5.63611 17.4625 5.65493 17.5508 5.6915C17.6391 5.72806 17.7193 5.78166 17.7869 5.84923C17.8544 5.9168 17.908 5.99701 17.9446 6.08529C17.9812 6.17357 18 6.26819 18 6.36375C18 6.4593 17.9812 6.55392 17.9446 6.6422C17.908 6.73049 17.8544 6.8107 17.7869 6.87827Z" fill="black"/>
</svg>
