<svg width="32" height="32" viewBox="0 0 32 32" fill="#B2AB73" xmlns="http://www.w3.org/2000/svg">
<path d="M10.1125 18.5043L15.7037 12.9131C15.7823 12.8346 15.8889 12.7905 16 12.7905C16.1111 12.7905 16.2177 12.8346 16.2963 12.9131L21.8875 18.5043C21.9615 18.5838 22.0019 18.6889 21.9999 18.7975C21.998 18.9062 21.954 19.0098 21.8772 19.0867C21.8004 19.1635 21.6967 19.2075 21.5881 19.2094C21.4794 19.2113 21.3743 19.171 21.2948 19.0969L16 13.8028L10.7052 19.0969C10.6257 19.171 10.5206 19.2113 10.4119 19.2094C10.3033 19.2075 10.1996 19.1635 10.1228 19.0867C10.046 19.0098 10.002 18.9062 10.0001 18.7975C9.99815 18.6889 10.0385 18.5838 10.1125 18.5043Z" fill="#B2AB73"/>
</svg>
