<svg width="20" height="20" viewBox="0 0 20 20" fill="none" xmlns="http://www.w3.org/2000/svg">
<path d="M13.4698 7.7851C13.5579 7.87333 13.6074 7.99294 13.6074 8.11765C13.6074 8.24235 13.5579 8.36196 13.4698 8.45019L9.07765 12.8424C8.98941 12.9305 8.86981 12.98 8.7451 12.98C8.62039 12.98 8.50079 12.9305 8.41255 12.8424L6.5302 10.96C6.44707 10.8708 6.40182 10.7528 6.40397 10.6309C6.40612 10.509 6.45551 10.3927 6.54173 10.3064C6.62795 10.2202 6.74427 10.1708 6.86618 10.1687C6.9881 10.1665 7.10609 10.2118 7.1953 10.2949L8.7451 11.8439L12.8047 7.7851C12.8929 7.69697 13.0125 7.64747 13.1373 7.64747C13.262 7.64747 13.3816 7.69697 13.4698 7.7851ZM18 10C18 11.5822 17.5308 13.129 16.6518 14.4446C15.7727 15.7602 14.5233 16.7855 13.0615 17.391C11.5997 17.9965 9.99113 18.155 8.43928 17.8463C6.88743 17.5376 5.46197 16.7757 4.34315 15.6569C3.22433 14.538 2.4624 13.1126 2.15372 11.5607C1.84504 10.0089 2.00347 8.40034 2.60897 6.93853C3.21447 5.47672 4.23985 4.22729 5.55544 3.34824C6.87103 2.46919 8.41775 2 10 2C12.121 2.00249 14.1544 2.84615 15.6541 4.3459C17.1539 5.84565 17.9975 7.87903 18 10ZM17.0588 10C17.0588 8.6039 16.6448 7.23914 15.8692 6.07833C15.0936 4.91751 13.9911 4.01276 12.7013 3.4785C11.4115 2.94423 9.99217 2.80444 8.62289 3.07681C7.25362 3.34918 5.99585 4.02146 5.00866 5.00866C4.02147 5.99585 3.34918 7.25361 3.07681 8.62289C2.80445 9.99217 2.94424 11.4115 3.4785 12.7013C4.01277 13.9911 4.91751 15.0936 6.07833 15.8692C7.23915 16.6448 8.6039 17.0588 10 17.0588C11.8715 17.0567 13.6657 16.3124 14.989 14.989C16.3124 13.6657 17.0567 11.8715 17.0588 10Z" fill="#B2AB73"/>
</svg>
