<svg width="32" height="32" viewBox="0 0 32 32" fill="none" xmlns="http://www.w3.org/2000/svg">
<path d="M16 4C13.6266 4 11.3066 4.70379 9.33316 6.02236C7.35977 7.34094 5.8217 9.21508 4.91345 11.4078C4.0052 13.6005 3.76756 16.0133 4.23058 18.3411C4.6936 20.6689 5.83649 22.807 7.51472 24.4853C9.19295 26.1635 11.3311 27.3064 13.6589 27.7694C15.9867 28.2324 18.3995 27.9948 20.5922 27.0865C22.7849 26.1783 24.6591 24.6402 25.9776 22.6668C27.2962 20.6934 28 18.3734 28 16C27.9966 12.8184 26.7313 9.76814 24.4816 7.51843C22.2319 5.26872 19.1816 4.00336 16 4ZM16.9231 26.1112V18.7692H19.6923C19.9371 18.7692 20.1719 18.672 20.345 18.4989C20.5181 18.3258 20.6154 18.091 20.6154 17.8462C20.6154 17.6013 20.5181 17.3665 20.345 17.1934C20.1719 17.0203 19.9371 16.9231 19.6923 16.9231H16.9231V14.1538C16.9231 13.6642 17.1176 13.1946 17.4638 12.8484C17.81 12.5022 18.2796 12.3077 18.7692 12.3077H20.6154C20.8602 12.3077 21.095 12.2104 21.2681 12.0373C21.4412 11.8642 21.5385 11.6294 21.5385 11.3846C21.5385 11.1398 21.4412 10.905 21.2681 10.7319C21.095 10.5588 20.8602 10.4615 20.6154 10.4615H18.7692C17.79 10.4615 16.8508 10.8505 16.1584 11.543C15.4659 12.2354 15.0769 13.1746 15.0769 14.1538V16.9231H12.3077C12.0629 16.9231 11.8281 17.0203 11.655 17.1934C11.4819 17.3665 11.3846 17.6013 11.3846 17.8462C11.3846 18.091 11.4819 18.3258 11.655 18.4989C11.8281 18.672 12.0629 18.7692 12.3077 18.7692H15.0769V26.1112C12.4748 25.8736 10.0643 24.642 8.34705 22.6726C6.62975 20.7032 5.73778 18.1476 5.85668 15.5373C5.97557 12.9271 7.09618 10.4631 8.9854 8.65797C10.8746 6.85284 13.387 5.84551 16 5.84551C18.613 5.84551 21.1254 6.85284 23.0146 8.65797C24.9038 10.4631 26.0244 12.9271 26.1433 15.5373C26.2622 18.1476 25.3703 20.7032 23.653 22.6726C21.9357 24.642 19.5252 25.8736 16.9231 26.1112Z" fill="white"/>
</svg>
