<svg width="8" height="16" viewBox="0 0 8 16" fill="none" xmlns="http://www.w3.org/2000/svg">
<path d="M6.88494 5.5811C6.8486 5.61757 6.80541 5.64651 6.75786 5.66625C6.71031 5.686 6.65933 5.69616 6.60784 5.69616C6.55635 5.69616 6.50537 5.686 6.45782 5.66625C6.41027 5.64651 6.36709 5.61757 6.33074 5.5811L4.00018 3.25054L1.66897 5.5811C1.59548 5.65459 1.49581 5.69588 1.39188 5.69588C1.28794 5.69588 1.18827 5.65459 1.11478 5.5811C1.04129 5.50761 1 5.40794 1 5.304C1 5.20007 1.04129 5.1004 1.11478 5.02691L3.72276 2.41892C3.7591 2.38245 3.80229 2.35352 3.84984 2.33377C3.89739 2.31403 3.94837 2.30386 3.99986 2.30386C4.05135 2.30386 4.10233 2.31403 4.14988 2.33377C4.19743 2.35352 4.24061 2.38245 4.27696 2.41892L6.88494 5.02691C6.92141 5.06325 6.95035 5.10644 6.97009 5.15399C6.98984 5.20154 7 5.25252 7 5.304C7 5.35549 6.98984 5.40647 6.97009 5.45402C6.95035 5.50157 6.92141 5.54476 6.88494 5.5811Z" fill="#B2AB73"/>
<path d="M6.88458 10.9732L4.27675 13.581C4.24041 13.6175 4.19723 13.6464 4.14968 13.6662C4.10214 13.6859 4.05116 13.6961 3.99967 13.6961C3.94819 13.6961 3.89721 13.6859 3.84966 13.6662C3.80212 13.6464 3.75893 13.6175 3.72259 13.581L1.11477 10.9732C1.04128 10.8997 1 10.8 1 10.6961C1 10.5922 1.04128 10.4925 1.11477 10.419C1.18826 10.3455 1.28793 10.3043 1.39185 10.3043C1.49578 10.3043 1.59545 10.3455 1.66893 10.419L4 12.7501L6.33107 10.4187C6.40455 10.3452 6.50422 10.3039 6.60815 10.3039C6.71207 10.3039 6.81174 10.3452 6.88523 10.4187C6.95871 10.4922 7 10.5919 7 10.6958C7 10.7997 6.95871 10.8994 6.88523 10.9729L6.88458 10.9732Z" fill="#B2AB73"/>
</svg>
