<svg width="32" height="32" viewBox="0 0 32 32" fill="none" xmlns="http://www.w3.org/2000/svg">
<path d="M16 10.4615C14.9046 10.4615 13.8338 10.7864 12.923 11.3949C12.0122 12.0035 11.3023 12.8685 10.8831 13.8805C10.4639 14.8925 10.3543 16.0061 10.568 17.0805C10.7817 18.1549 11.3091 19.1417 12.0837 19.9163C12.8583 20.6909 13.8451 21.2183 14.9195 21.432C15.9939 21.6457 17.1075 21.5361 18.1195 21.1169C19.1315 20.6977 19.9965 19.9878 20.6051 19.077C21.2136 18.1662 21.5385 17.0954 21.5385 16C21.5369 14.5316 20.9529 13.1237 19.9146 12.0854C18.8763 11.0471 17.4684 10.4631 16 10.4615ZM16 19.6923C15.2697 19.6923 14.5559 19.4758 13.9487 19.07C13.3415 18.6643 12.8682 18.0877 12.5888 17.413C12.3093 16.7383 12.2362 15.9959 12.3786 15.2797C12.5211 14.5634 12.8728 13.9055 13.3891 13.3891C13.9055 12.8728 14.5634 12.5211 15.2797 12.3786C15.9959 12.2362 16.7383 12.3093 17.413 12.5888C18.0877 12.8682 18.6643 13.3415 19.07 13.9487C19.4758 14.5559 19.6923 15.2697 19.6923 16C19.6923 16.9793 19.3033 17.9184 18.6109 18.6109C17.9184 19.3033 16.9793 19.6923 16 19.6923ZM21.5385 4H10.4615C8.74839 4.00183 7.10594 4.68319 5.89456 5.89456C4.68319 7.10594 4.00183 8.74839 4 10.4615V21.5385C4.00183 23.2516 4.68319 24.8941 5.89456 26.1054C7.10594 27.3168 8.74839 27.9982 10.4615 28H21.5385C23.2516 27.9982 24.8941 27.3168 26.1054 26.1054C27.3168 24.8941 27.9982 23.2516 28 21.5385V10.4615C27.9982 8.74839 27.3168 7.10594 26.1054 5.89456C24.8941 4.68319 23.2516 4.00183 21.5385 4ZM26.1538 21.5385C26.1538 22.7625 25.6676 23.9365 24.802 24.802C23.9365 25.6676 22.7625 26.1538 21.5385 26.1538H10.4615C9.23746 26.1538 8.06352 25.6676 7.19797 24.802C6.33242 23.9365 5.84615 22.7625 5.84615 21.5385V10.4615C5.84615 9.23746 6.33242 8.06352 7.19797 7.19797C8.06352 6.33242 9.23746 5.84615 10.4615 5.84615H21.5385C22.7625 5.84615 23.9365 6.33242 24.802 7.19797C25.6676 8.06352 26.1538 9.23746 26.1538 10.4615V21.5385ZM23.3846 10C23.3846 10.2739 23.3034 10.5416 23.1513 10.7693C22.9991 10.9969 22.7829 11.1744 22.5299 11.2792C22.2769 11.384 21.9985 11.4114 21.7299 11.358C21.4613 11.3046 21.2146 11.1727 21.0209 10.9791C20.8273 10.7854 20.6954 10.5387 20.642 10.2701C20.5886 10.0015 20.616 9.72314 20.7208 9.47013C20.8256 9.21713 21.003 9.00088 21.2307 8.84873C21.4584 8.69659 21.7261 8.61538 22 8.61538C22.3672 8.61538 22.7194 8.76126 22.9791 9.02093C23.2387 9.28059 23.3846 9.63278 23.3846 10Z" fill="white"/>
</svg>
