<svg width="288" height="88" viewBox="0 0 288 88" fill="none" xmlns="http://www.w3.org/2000/svg">
<path fill-rule="evenodd" clip-rule="evenodd" d="M37.6624 20.5157C34.264 17.9758 28.3026 16.5753 22.4524 18.5743C14.9688 21.1313 9.3528 27.0101 9.33589 35.2703C9.33323 36.5697 9.45529 37.7586 9.69243 38.8429C14.2081 31.7275 25.8523 24.5291 37.6624 20.5157ZM12.9044 44.6185C15.9907 38.2357 27.7332 29.3623 41.2586 25.4753C42.4239 28.645 42.2179 32.311 40.872 36.149C39.306 40.6151 36.6712 43.9916 33.2563 46.0491C29.6914 47.1545 26.1911 47.938 22.9721 48.2915C18.7847 47.9664 15.302 46.821 12.9044 44.6185ZM52.7335 36.9966C53.0207 36.6231 53.3446 36.2431 53.7094 35.8561C55.8947 33.5381 58.4011 31.6602 61.0386 30.5276C60.9172 30.6506 60.7937 30.7735 60.6681 30.8965C57.6513 33.5086 55.701 35.0357 52.7335 36.9966ZM50.7624 45.9094C58.5084 41.68 64.8286 36.032 68.5641 29.5438C70.104 29.8345 71.6293 30.4555 73.1056 31.4624C77.9088 34.7385 79.623 39.3687 79.3849 45.3757C79.1062 52.4056 74.6409 57.3851 69.1988 62.511C62.5951 68.7311 59.3716 71.4652 50.7791 73.7882C45.6274 75.1809 41.7093 75.1062 38.2208 72.6165C36.8807 71.6601 35.7467 70.3699 35.0688 68.7896C35.2704 67.8864 35.7173 67.1116 36.7756 66.4892C37.0288 66.3403 37.0077 65.7868 36.7676 65.6281C35.8035 64.9911 35.2617 63.7108 34.8504 62.4757C35.0315 61.8712 35.2694 61.248 35.5695 60.6071C36.8343 57.9061 38.839 57.0251 41.0534 56.4084C40.169 57.4978 39.6595 58.8813 39.7402 60.4496C39.8665 62.9023 41.3429 64.7126 43.3664 65.6369C44.181 66.009 45.0843 66.2375 46.0239 66.3065C46.5707 66.3467 47.1087 66.3178 47.6286 66.2266C50.496 65.7235 52.8114 63.3247 52.9898 60.1568C53.1774 56.8238 50.6498 54.3941 47.6077 53.9386C48.0771 53.5917 48.5316 53.184 48.9654 52.6985C51.0214 50.3976 50.9558 48.2121 50.7624 45.9094ZM54.1055 52.3458C55.0831 51.4442 55.8155 50.1366 56.252 48.8882C56.3483 48.6127 56.7468 48.6041 56.8356 48.8823C57.2551 50.1959 57.7951 51.6338 58.8185 52.3396C59.0626 52.508 59.0932 53.0961 58.8393 53.2478C57.2533 54.1953 57.0631 55.4926 56.9954 57.0553C56.9824 57.3563 56.6665 57.415 56.5674 57.1322C56.1045 55.8114 55.3538 53.7799 54.1861 53.0137C53.9803 52.8787 53.9232 52.514 54.1055 52.3458Z" fill="#B2AB73"/>
<path d="M7.94858 42.8206C11.2962 28.1784 51.8816 10.4613 65.1309 19.9787M7.94858 42.8206L12.0727 53.5005C12.1096 53.5963 12.1954 53.6626 12.2962 53.6732C22.66 54.7588 33.295 53.1505 42.6764 49.6096M7.94858 42.8206C8.7271 44.8298 10.1809 46.249 12.1326 47.1665M65.1309 19.9787C65.1972 20.1274 65.2562 20.2775 65.3079 20.429M65.1309 19.9787L65.3079 20.429M12.1326 47.1665C12.9695 37.6958 42.1185 17.7824 64.9455 25.1035M12.1326 47.1665C20.6003 51.1471 38.4415 45.6852 51.184 38.0018C55.0904 35.5068 57.1569 33.9364 60.6679 30.8964C62.6644 28.9411 64.1519 26.9794 64.9455 25.1035M64.9455 25.1035C65.6413 23.4586 65.8037 21.8798 65.3079 20.429M42.6764 49.6096C43.3477 51.1598 45.1868 51.7908 46.0236 51.6059C46.8605 51.421 47.9712 48.3846 47.6284 47.5061M42.6764 49.6096C41.7538 48.0494 42.7691 45.6416 44.4895 45.3098C45.9384 45.0303 46.9999 45.8954 47.6284 47.5061M47.6284 47.5061C56.8891 43.1104 64.4863 36.7618 68.6894 29.3238C68.7324 29.2476 68.7387 29.1566 68.7073 29.0765L65.3079 20.429M65.6888 28.764L65.8283 30.2283M64.573 31.8389L63.4573 33.1567M50.7656 21.2965L52.8576 21.0036M54.2523 19.6858L56.4838 19.6858M14.5036 51.6059L15.8983 51.6059M18.6877 51.6059L19.9429 51.6059M63.1784 53.9109L63.4573 57.1322M61.9231 55.9795L64.9915 54.3502M47.5502 61.3281C46.3881 61.2339 45.5706 60.0501 45.7371 58.839C45.8517 58.0055 46.2478 57.4454 46.9924 57.1322C48.3776 56.5496 50.1834 58.7625 49.5028 60.1568C49.1023 60.9773 48.4259 61.3991 47.5502 61.3281ZM47.5502 61.3281C46.422 63.3386 45.5624 64.3184 43.3662 65.6369M47.5502 61.3281C47.8683 63.1443 47.9578 64.1925 47.6284 66.2266M43.3662 65.6369C41.3426 64.7126 39.8662 62.9023 39.74 60.4496C39.5578 56.9099 42.3823 54.3118 45.7371 53.9109C49.5293 53.4578 53.2147 56.1569 52.9895 60.1568C52.8112 63.3247 50.4958 65.7235 47.6284 66.2266M43.3662 65.6369C44.1808 66.009 45.0841 66.2375 46.0236 66.3065C46.5704 66.3466 47.1085 66.3178 47.6284 66.2266M56.2517 48.8881C55.8153 50.1366 55.0828 51.4442 54.1053 52.3458C53.923 52.514 53.98 52.8787 54.1858 53.0137C55.3536 53.7799 56.1042 55.8114 56.5672 57.1322C56.6663 57.415 56.9821 57.3563 56.9952 57.0553C57.0629 55.4926 57.253 54.1953 58.8391 53.2477C59.093 53.0961 59.0624 52.508 58.8182 52.3396C57.7949 51.6338 57.2548 50.1959 56.8354 48.8823C56.7466 48.6041 56.348 48.6127 56.2517 48.8881ZM36.7754 66.4892C35.1637 67.437 34.9698 68.7385 34.9015 70.3082C34.8886 70.6031 34.5696 70.6666 34.473 70.3911C34.0066 69.0604 33.2482 67.0088 32.0656 66.2562C31.8652 66.1286 31.8146 65.7853 31.9945 65.6206C32.9783 64.7205 33.7156 63.4089 34.1549 62.1557C34.2504 61.8834 34.6535 61.8661 34.74 62.1371C35.1655 63.4702 35.7148 64.9325 36.7673 65.6281C37.0074 65.7868 37.0286 66.3403 36.7754 66.4892Z" stroke="black" stroke-width="1.40625" stroke-linecap="round"/>
<path d="M97.9221 46.46V44H103.688C104.482 44 105.183 43.84 105.793 43.52C106.424 43.2 106.912 42.75 107.258 42.17C107.624 41.59 107.807 40.9 107.807 40.1C107.807 39.3 107.624 38.61 107.258 38.03C106.912 37.45 106.424 37 105.793 36.68C105.183 36.36 104.482 36.2 103.688 36.2H97.9221V33.74H103.871C105.173 33.74 106.332 34 107.349 34.52C108.387 35.04 109.2 35.78 109.79 36.74C110.4 37.68 110.705 38.8 110.705 40.1C110.705 41.38 110.4 42.5 109.79 43.46C109.2 44.4 108.387 45.14 107.349 45.68C106.332 46.2 105.173 46.46 103.871 46.46H97.9221ZM96 54.56V33.74H98.8679V54.56H96Z" fill="black"/>
<path d="M119.343 54.86C118.021 54.86 116.821 54.54 115.743 53.9C114.665 53.24 113.81 52.35 113.18 51.23C112.57 50.11 112.265 48.85 112.265 47.45C112.265 46.05 112.57 44.79 113.18 43.67C113.81 42.55 114.654 41.66 115.712 41C116.79 40.34 118 40.01 119.343 40.01C120.441 40.01 121.417 40.24 122.272 40.7C123.146 41.14 123.848 41.76 124.377 42.56C124.906 43.34 125.2 44.25 125.262 45.29V49.58C125.2 50.6 124.906 51.51 124.377 52.31C123.868 53.11 123.177 53.74 122.302 54.2C121.448 54.64 120.461 54.86 119.343 54.86ZM119.8 52.31C121.163 52.31 122.261 51.86 123.095 50.96C123.929 50.04 124.346 48.87 124.346 47.45C124.346 46.47 124.153 45.62 123.767 44.9C123.4 44.16 122.872 43.59 122.18 43.19C121.489 42.77 120.685 42.56 119.77 42.56C118.855 42.56 118.041 42.77 117.329 43.19C116.638 43.61 116.088 44.19 115.682 44.93C115.295 45.65 115.102 46.48 115.102 47.42C115.102 48.38 115.295 49.23 115.682 49.97C116.088 50.69 116.648 51.26 117.36 51.68C118.071 52.1 118.885 52.31 119.8 52.31ZM124.163 54.56V50.72L124.682 47.24L124.163 43.79V40.31H126.94V54.56H124.163Z" fill="black"/>
<path d="M135.027 54.56L129.291 40.31H132.159L136.308 51.41H135.393L139.512 40.31H141.098L145.217 51.41H144.302L148.451 40.31H151.319L145.614 54.56H143.997L139.817 43.79H140.824L136.613 54.56H135.027Z" fill="black"/>
<path d="M158.009 54.86C157.195 54.86 156.422 54.76 155.69 54.56C154.978 54.34 154.317 54.04 153.707 53.66C153.097 53.26 152.568 52.79 152.121 52.25L153.89 50.51C154.419 51.15 155.029 51.63 155.721 51.95C156.412 52.25 157.185 52.4 158.039 52.4C158.894 52.4 159.555 52.26 160.023 51.98C160.49 51.68 160.724 51.27 160.724 50.75C160.724 50.23 160.531 49.83 160.145 49.55C159.778 49.25 159.3 49.01 158.711 48.83C158.121 48.63 157.49 48.44 156.819 48.26C156.168 48.06 155.548 47.81 154.958 47.51C154.368 47.21 153.88 46.8 153.494 46.28C153.127 45.76 152.944 45.07 152.944 44.21C152.944 43.35 153.158 42.61 153.585 41.99C154.012 41.35 154.602 40.86 155.355 40.52C156.128 40.18 157.053 40.01 158.131 40.01C159.27 40.01 160.277 40.21 161.151 40.61C162.046 40.99 162.779 41.57 163.348 42.35L161.579 44.09C161.172 43.57 160.663 43.17 160.053 42.89C159.463 42.61 158.792 42.47 158.039 42.47C157.246 42.47 156.636 42.61 156.209 42.89C155.802 43.15 155.599 43.52 155.599 44C155.599 44.48 155.782 44.85 156.148 45.11C156.514 45.37 156.992 45.59 157.582 45.77C158.192 45.95 158.823 46.14 159.473 46.34C160.124 46.52 160.745 46.77 161.334 47.09C161.924 47.41 162.402 47.84 162.768 48.38C163.155 48.92 163.348 49.63 163.348 50.51C163.348 51.85 162.86 52.91 161.884 53.69C160.928 54.47 159.636 54.86 158.009 54.86Z" fill="black"/>
<path d="M187.138 54.56L177.009 43.88C176.216 43.04 175.626 42.24 175.24 41.48C174.853 40.72 174.66 39.88 174.66 38.96C174.66 37.9 174.914 36.96 175.423 36.14C175.931 35.3 176.633 34.64 177.528 34.16C178.423 33.66 179.45 33.41 180.609 33.41C181.463 33.41 182.236 33.55 182.928 33.83C183.64 34.09 184.26 34.44 184.789 34.88C185.338 35.32 185.796 35.82 186.162 36.38L184.179 38.15C183.711 37.51 183.192 37 182.623 36.62C182.074 36.22 181.402 36.02 180.609 36.02C179.694 36.02 178.931 36.29 178.321 36.83C177.711 37.37 177.406 38.07 177.406 38.93C177.406 39.65 177.558 40.26 177.863 40.76C178.168 41.26 178.626 41.84 179.236 42.5L190.494 54.56H187.138ZM179.541 54.86C178.138 54.86 176.907 54.59 175.85 54.05C174.792 53.51 173.968 52.77 173.378 51.83C172.809 50.87 172.524 49.78 172.524 48.56C172.524 47.3 172.87 46.16 173.562 45.14C174.253 44.12 175.26 43.31 176.582 42.71L177.894 44.39C177.08 44.79 176.44 45.34 175.972 46.04C175.504 46.72 175.27 47.54 175.27 48.5C175.27 49.28 175.453 49.95 175.819 50.51C176.185 51.07 176.694 51.51 177.345 51.83C178.016 52.13 178.779 52.28 179.633 52.28C180.711 52.28 181.626 52.06 182.379 51.62C183.131 51.18 183.701 50.62 184.087 49.94L185.887 52.01C185.48 52.55 184.941 53.04 184.27 53.48C183.619 53.9 182.887 54.24 182.074 54.5C181.28 54.74 180.436 54.86 179.541 54.86Z" fill="black"/>
<path d="M208.162 54.86C206.637 54.86 205.223 54.59 203.921 54.05C202.62 53.49 201.481 52.72 200.504 51.74C199.548 50.76 198.806 49.62 198.277 48.32C197.748 47.02 197.484 45.63 197.484 44.15C197.484 42.65 197.748 41.25 198.277 39.95C198.806 38.65 199.548 37.52 200.504 36.56C201.481 35.58 202.609 34.82 203.891 34.28C205.193 33.72 206.606 33.44 208.132 33.44C209.799 33.44 211.264 33.72 212.525 34.28C213.786 34.84 214.905 35.6 215.881 36.56L213.898 38.51C213.227 37.77 212.403 37.19 211.427 36.77C210.471 36.35 209.372 36.14 208.132 36.14C207.013 36.14 205.986 36.34 205.05 36.74C204.115 37.12 203.301 37.67 202.609 38.39C201.918 39.11 201.379 39.96 200.992 40.94C200.626 41.92 200.443 42.99 200.443 44.15C200.443 45.31 200.626 46.38 200.992 47.36C201.379 48.34 201.918 49.19 202.609 49.91C203.301 50.63 204.115 51.19 205.05 51.59C205.986 51.97 207.013 52.16 208.132 52.16C209.454 52.16 210.603 51.95 211.579 51.53C212.555 51.09 213.379 50.5 214.05 49.76L216.034 51.68C215.057 52.68 213.908 53.46 212.586 54.02C211.284 54.58 209.81 54.86 208.162 54.86Z" fill="black"/>
<path d="M219.068 54.56V33.14H221.814V54.56H219.068Z" fill="black"/>
<path d="M231.995 54.86C230.673 54.86 229.473 54.54 228.395 53.9C227.317 53.24 226.462 52.35 225.832 51.23C225.222 50.11 224.917 48.85 224.917 47.45C224.917 46.05 225.222 44.79 225.832 43.67C226.462 42.55 227.306 41.66 228.364 41C229.442 40.34 230.652 40.01 231.995 40.01C233.093 40.01 234.069 40.24 234.924 40.7C235.798 41.14 236.5 41.76 237.029 42.56C237.558 43.34 237.852 44.25 237.913 45.29V49.58C237.852 50.6 237.558 51.51 237.029 52.31C236.52 53.11 235.829 53.74 234.954 54.2C234.1 54.64 233.113 54.86 231.995 54.86ZM232.452 52.31C233.815 52.31 234.913 51.86 235.747 50.96C236.581 50.04 236.998 48.87 236.998 47.45C236.998 46.47 236.805 45.62 236.419 44.9C236.052 44.16 235.524 43.59 234.832 43.19C234.14 42.77 233.337 42.56 232.422 42.56C231.507 42.56 230.693 42.77 229.981 43.19C229.29 43.61 228.74 44.19 228.334 44.93C227.947 45.65 227.754 46.48 227.754 47.42C227.754 48.38 227.947 49.23 228.334 49.97C228.74 50.69 229.3 51.26 230.012 51.68C230.723 52.1 231.537 52.31 232.452 52.31ZM236.815 54.56V50.72L237.334 47.24L236.815 43.79V40.31H239.591V54.56H236.815Z" fill="black"/>
<path d="M247.679 54.56L241.943 40.31H244.811L248.96 51.41H248.045L252.164 40.31H253.75L257.869 51.41H256.954L261.103 40.31H263.971L258.266 54.56H256.649L252.469 43.79H253.476L249.265 54.56H247.679Z" fill="black"/>
<path d="M270.661 54.86C269.847 54.86 269.074 54.76 268.342 54.56C267.63 54.34 266.969 54.04 266.359 53.66C265.749 53.26 265.22 52.79 264.773 52.25L266.542 50.51C267.071 51.15 267.681 51.63 268.373 51.95C269.064 52.25 269.837 52.4 270.691 52.4C271.546 52.4 272.207 52.26 272.674 51.98C273.142 51.68 273.376 51.27 273.376 50.75C273.376 50.23 273.183 49.83 272.797 49.55C272.43 49.25 271.952 49.01 271.363 48.83C270.773 48.63 270.142 48.44 269.471 48.26C268.82 48.06 268.2 47.81 267.61 47.51C267.02 47.21 266.532 46.8 266.146 46.28C265.779 45.76 265.596 45.07 265.596 44.21C265.596 43.35 265.81 42.61 266.237 41.99C266.664 41.35 267.254 40.86 268.007 40.52C268.779 40.18 269.705 40.01 270.783 40.01C271.922 40.01 272.929 40.21 273.803 40.61C274.698 40.99 275.43 41.57 276 42.35L274.23 44.09C273.824 43.57 273.315 43.17 272.705 42.89C272.115 42.61 271.444 42.47 270.691 42.47C269.898 42.47 269.288 42.61 268.861 42.89C268.454 43.15 268.251 43.52 268.251 44C268.251 44.48 268.434 44.85 268.8 45.11C269.166 45.37 269.644 45.59 270.234 45.77C270.844 45.95 271.474 46.14 272.125 46.34C272.776 46.52 273.397 46.77 273.986 47.09C274.576 47.41 275.054 47.84 275.42 48.38C275.807 48.92 276 49.63 276 50.51C276 51.85 275.512 52.91 274.536 53.69C273.58 54.47 272.288 54.86 270.661 54.86Z" fill="black"/>
</svg>
