<svg width="20" height="20" viewBox="0 0 20 20" fill="none" xmlns="http://www.w3.org/2000/svg">
<path d="M18.7973 17.8188L14.469 13.4914C15.7236 11.9852 16.3491 10.0534 16.2156 8.09784C16.0821 6.14224 15.1998 4.31339 13.7522 2.99175C12.3046 1.67011 10.4032 0.957432 8.44359 1.00197C6.48394 1.0465 4.6169 1.84483 3.23087 3.23087C1.84483 4.6169 1.0465 6.48394 1.00197 8.44359C0.957432 10.4032 1.67011 12.3046 2.99175 13.7522C4.31339 15.1998 6.14224 16.0821 8.09784 16.2156C10.0534 16.3491 11.9852 15.7236 13.4914 14.469L17.8188 18.7973C17.883 18.8616 17.9593 18.9126 18.0433 18.9473C18.1272 18.9821 18.2172 19 18.3081 19C18.3989 19 18.4889 18.9821 18.5729 18.9473C18.6568 18.9126 18.7331 18.8616 18.7973 18.7973C18.8616 18.7331 18.9126 18.6568 18.9473 18.5729C18.9821 18.4889 19 18.3989 19 18.3081C19 18.2172 18.9821 18.1272 18.9473 18.0433C18.9126 17.9593 18.8616 17.883 18.7973 17.8188ZM2.40222 8.62624C2.40222 7.39525 2.76726 6.1919 3.45116 5.16836C4.13506 4.14483 5.10712 3.34708 6.24441 2.876C7.38171 2.40492 8.63315 2.28166 9.84049 2.52182C11.0478 2.76197 12.1568 3.35475 13.0273 4.2252C13.8977 5.09564 14.4905 6.20466 14.7307 7.412C14.9708 8.61934 14.8476 9.87078 14.3765 11.0081C13.9054 12.1454 13.1077 13.1174 12.0841 13.8013C11.0606 14.4852 9.85724 14.8503 8.62624 14.8503C6.97609 14.8484 5.39405 14.1921 4.22722 13.0253C3.06038 11.8584 2.40405 10.2764 2.40222 8.62624Z" fill="#B2AB73"/>
</svg>
