<svg width="32" height="32" viewBox="0 0 32 32" fill="none" xmlns="http://www.w3.org/2000/svg">
<g id="PawPrint">
<path id="Vector" d="M28 13.847C28 14.4403 27.8241 15.0203 27.4944 15.5137C27.1648 16.007 26.6962 16.3915 26.1481 16.6186C25.5999 16.8457 24.9967 16.9051 24.4147 16.7893C23.8328 16.6736 23.2982 16.3878 22.8787 15.9683C22.4591 15.5487 22.1734 15.0142 22.0576 14.4322C21.9419 13.8503 22.0013 13.2471 22.2284 12.6989C22.4554 12.1507 22.8399 11.6822 23.3333 11.3526C23.8266 11.0229 24.4067 10.847 25 10.847C25.7957 10.847 26.5587 11.163 27.1213 11.7256C27.6839 12.2882 28 13.0513 28 13.847ZM10 13.847C10 13.2536 9.82405 12.6736 9.49441 12.1802C9.16477 11.6869 8.69623 11.3024 8.14805 11.0753C7.59987 10.8483 6.99667 10.7888 6.41473 10.9046C5.83279 11.0204 5.29824 11.3061 4.87868 11.7256C4.45912 12.1452 4.1734 12.6797 4.05765 13.2617C3.94189 13.8436 4.0013 14.4468 4.22836 14.995C4.45543 15.5432 4.83994 16.0117 5.33329 16.3414C5.82664 16.671 6.40666 16.847 7 16.847C7.79565 16.847 8.55871 16.5309 9.12132 15.9683C9.68393 15.4057 10 14.6426 10 13.847ZM12.1429 11.7041C12.7362 11.7041 13.3162 11.5282 13.8096 11.1985C14.3029 10.8689 14.6874 10.4003 14.9145 9.85215C15.1416 9.30397 15.201 8.70077 15.0852 8.11883C14.9695 7.53689 14.6837 7.00234 14.2642 6.58278C13.8446 6.16323 13.3101 5.8775 12.7281 5.76175C12.1462 5.64599 11.543 5.7054 10.9948 5.93246C10.4466 6.15953 9.97809 6.54404 9.64845 7.03739C9.3188 7.53074 9.14286 8.11076 9.14286 8.7041C9.14286 9.49975 9.45893 10.2628 10.0215 10.8254C10.5841 11.388 11.3472 11.7041 12.1429 11.7041ZM19.8571 11.7041C20.4505 11.7041 21.0305 11.5282 21.5239 11.1985C22.0172 10.8689 22.4017 10.4003 22.6288 9.85215C22.8558 9.30397 22.9153 8.70077 22.7995 8.11883C22.6837 7.53689 22.398 7.00234 21.9785 6.58278C21.5589 6.16323 21.0244 5.8775 20.4424 5.76175C19.8605 5.64599 19.2573 5.7054 18.7091 5.93246C18.1609 6.15953 17.6924 6.54404 17.3627 7.03739C17.0331 7.53074 16.8571 8.11076 16.8571 8.7041C16.8571 9.49975 17.1732 10.2628 17.7358 10.8254C18.2984 11.388 19.0615 11.7041 19.8571 11.7041ZM22.3343 18.2248C21.8989 17.9846 21.5152 17.6609 21.205 17.2723C20.8949 16.8836 20.6644 16.4376 20.5268 15.9598C20.2418 14.9797 19.6464 14.1186 18.8301 13.5059C18.0138 12.8931 17.0207 12.5619 16 12.5619C14.9793 12.5619 13.9862 12.8931 13.1699 13.5059C12.3536 14.1186 11.7582 14.9797 11.4732 15.9598C11.1979 16.9213 10.5525 17.7343 9.67857 18.2205C8.8402 18.6742 8.177 19.3944 7.79385 20.2672C7.41071 21.1401 7.3295 22.1157 7.56306 23.0399C7.79663 23.9641 8.33164 24.784 9.08347 25.37C9.83531 25.956 10.7611 26.2747 11.7143 26.2755C12.2855 26.2772 12.8512 26.1631 13.3771 25.9402C15.054 25.2486 16.9364 25.2486 18.6132 25.9402C19.6289 26.3819 20.7761 26.4133 21.8144 26.0277C22.8527 25.6422 23.7014 24.8696 24.1826 23.872C24.6638 22.8745 24.7401 21.7293 24.3955 20.6767C24.0509 19.6241 23.3122 18.7458 22.3343 18.2259V18.2248Z" fill="#E68314"/>
</g>
</svg>
