<svg width="40" height="40" viewBox="0 0 40 40" fill="none" xmlns="http://www.w3.org/2000/svg">
<path d="M17.4915 30.0353C17.4915 30.3511 17.3979 30.6598 17.2224 30.9223C17.047 31.1849 16.7977 31.3895 16.5059 31.5104C16.2142 31.6312 15.8932 31.6628 15.5835 31.6012C15.2738 31.5396 14.9893 31.3875 14.7661 31.1643C14.5428 30.941 14.3907 30.6565 14.3291 30.3468C14.2675 30.0371 14.2991 29.7161 14.42 29.4244C14.5408 29.1327 14.7454 28.8833 15.008 28.7079C15.2705 28.5324 15.5792 28.4388 15.895 28.4388C16.3184 28.4388 16.7245 28.607 17.0239 28.9064C17.3233 29.2058 17.4915 29.6119 17.4915 30.0353ZM27.7549 28.4388C27.4392 28.4388 27.1305 28.5324 26.868 28.7079C26.6054 28.8833 26.4008 29.1327 26.2799 29.4244C26.1591 29.7161 26.1275 30.0371 26.1891 30.3468C26.2507 30.6565 26.4027 30.941 26.626 31.1643C26.8493 31.3875 27.1338 31.5396 27.4435 31.6012C27.7532 31.6628 28.0742 31.6312 28.3659 31.5104C28.6576 31.3895 28.907 31.1849 29.0824 30.9223C29.2578 30.6598 29.3515 30.3511 29.3515 30.0353C29.3515 29.6119 29.1833 29.2058 28.8839 28.9064C28.5844 28.607 28.1784 28.4388 27.7549 28.4388ZM32.9699 13.8146L29.7175 24.387C29.5617 24.9004 29.2446 25.3499 28.8132 25.6688C28.3819 25.9878 27.8592 26.1594 27.3227 26.1581H16.3591C15.8136 26.156 15.2835 25.9771 14.8484 25.6481C14.4132 25.3191 14.0966 24.8578 13.9461 24.3334L9.82244 9.90192C9.80878 9.85414 9.77989 9.81214 9.74016 9.78229C9.70043 9.75244 9.65204 9.73638 9.60235 9.73656H7.68423C7.50276 9.73656 7.32872 9.66447 7.20041 9.53615C7.07209 9.40784 7 9.2338 7 9.05233C7 8.87086 7.07209 8.69683 7.20041 8.56851C7.32872 8.44019 7.50276 8.3681 7.68423 8.3681H9.60235C9.94898 8.36904 10.286 8.48236 10.5627 8.69106C10.8395 8.89976 11.0411 9.19258 11.1373 9.52559L12.11 12.9296H32.3165C32.4234 12.9297 32.5289 12.9549 32.6244 13.0032C32.7198 13.0514 32.8027 13.1214 32.8662 13.2074C32.9297 13.2935 32.9722 13.3932 32.9902 13.4987C33.0082 13.6041 33.0013 13.7123 32.9699 13.8146ZM31.3905 14.2981H12.5012L15.2621 23.9628C15.3302 24.2011 15.4742 24.4107 15.6721 24.5599C15.8701 24.7091 16.1112 24.7897 16.3591 24.7896H27.3193C27.5632 24.7896 27.8008 24.7115 27.997 24.5666C28.1932 24.4216 28.3378 24.2176 28.4095 23.9845L31.3905 14.2981Z" fill="black"/>
</svg>
