<svg width="40" height="40" viewBox="0 0 40 40" fill="none" xmlns="http://www.w3.org/2000/svg">
<path d="M32.7949 31.7149L26.2513 25.1713C28.1173 23.0254 29.0772 20.2388 28.9287 17.3989C28.7802 14.559 27.5349 11.8877 25.4552 9.94812C23.3756 8.00852 20.6241 6.95214 17.7808 7.00167C14.9375 7.05119 12.2244 8.20274 10.2136 10.2136C8.20274 12.2244 7.05119 14.9375 7.00167 17.7808C6.95214 20.6241 8.00852 23.3756 9.94812 25.4552C11.8877 27.5349 14.559 28.7802 17.3989 28.9287C20.2388 29.0772 23.0254 28.1173 25.1713 26.2513L31.7149 32.7949C31.8598 32.9299 32.0514 33.0034 32.2493 32.9999C32.4473 32.9964 32.6362 32.9162 32.7762 32.7762C32.9162 32.6362 32.9964 32.4473 32.9999 32.2493C33.0034 32.0514 32.9299 31.8598 32.7949 31.7149ZM8.56644 17.9909C8.56644 16.1269 9.11917 14.3048 10.1547 12.7549C11.1903 11.2051 12.6622 9.99714 14.3843 9.28383C16.1064 8.57052 18.0013 8.38388 19.8295 8.74752C21.6577 9.11117 23.3369 10.0088 24.655 11.3268C25.973 12.6448 26.8706 14.3241 27.2342 16.1523C27.5979 17.9804 27.4113 19.8754 26.6979 21.5975C25.9846 23.3196 24.7767 24.7915 23.2268 25.827C21.677 26.8626 19.8549 27.4153 17.9909 27.4153C15.4923 27.4123 13.0969 26.4184 11.3301 24.6516C9.56337 22.8849 8.56947 20.4895 8.56644 17.9909Z" fill="black"/>
</svg>
