<svg width="40" height="40" viewBox="0 0 40 40" fill="none" xmlns="http://www.w3.org/2000/svg">
<path d="M23.9055 20.5864L18.3736 26.1183C18.2163 26.2649 18.0083 26.3447 17.7933 26.3409C17.5783 26.3371 17.3732 26.25 17.2212 26.098C17.0692 25.9459 16.9821 25.7408 16.9783 25.5259C16.9745 25.3109 17.0543 25.1028 17.2009 24.9455L21.3152 20.8298H7.82979C7.60971 20.8298 7.39865 20.7424 7.24304 20.5867C7.08742 20.4311 7 20.2201 7 20C7 19.7799 7.08742 19.5689 7.24304 19.4133C7.39865 19.2576 7.60971 19.1702 7.82979 19.1702H21.3152L17.2009 15.0545C17.0543 14.8972 16.9745 14.6891 16.9783 14.4741C16.9821 14.2592 17.0692 14.0541 17.2212 13.902C17.3732 13.75 17.5783 13.6629 17.7933 13.6591C18.0083 13.6553 18.2163 13.7351 18.3736 13.8817L23.9055 19.4136C24.0609 19.5692 24.1482 19.7801 24.1482 20C24.1482 20.2199 24.0609 20.4308 23.9055 20.5864ZM31.0638 7H23.3191C23.0991 7 22.888 7.08742 22.7324 7.24304C22.5768 7.39865 22.4894 7.60971 22.4894 7.82979C22.4894 8.04986 22.5768 8.26092 22.7324 8.41654C22.888 8.57215 23.0991 8.65957 23.3191 8.65957H31.0638C31.1372 8.65957 31.2075 8.68872 31.2594 8.74059C31.3113 8.79246 31.3404 8.86281 31.3404 8.93617V31.0638C31.3404 31.1372 31.3113 31.2075 31.2594 31.2594C31.2075 31.3113 31.1372 31.3404 31.0638 31.3404H23.3191C23.0991 31.3404 22.888 31.4278 22.7324 31.5835C22.5768 31.7391 22.4894 31.9501 22.4894 32.1702C22.4894 32.3903 22.5768 32.6013 22.7324 32.757C22.888 32.9126 23.0991 33 23.3191 33H31.0638C31.5773 33 32.0698 32.796 32.4329 32.4329C32.796 32.0698 33 31.5773 33 31.0638V8.93617C33 8.42267 32.796 7.93019 32.4329 7.56709C32.0698 7.20399 31.5773 7 31.0638 7Z" fill="black"/>
</svg>
