<svg width="32" height="32" viewBox="0 0 32 32" fill="none" xmlns="http://www.w3.org/2000/svg">
<path d="M27.6662 5.52033C27.5334 5.40566 27.3719 5.32939 27.1989 5.29975C27.026 5.27011 26.8482 5.28821 26.6848 5.35212L4.9714 13.8496C4.66367 13.9692 4.40314 14.1856 4.22904 14.4662C4.05493 14.7467 3.97667 15.0762 4.00604 15.4051C4.03541 15.7339 4.17082 16.0444 4.39188 16.2896C4.61294 16.5349 4.90769 16.7017 5.23175 16.7649L10.8578 17.8695V24.1427C10.8567 24.4844 10.9582 24.8185 11.1493 25.1019C11.3403 25.3852 11.612 25.6046 11.9292 25.7316C12.2459 25.8609 12.5942 25.892 12.9288 25.8207C13.2634 25.7494 13.5688 25.5791 13.8053 25.332L16.5181 22.5184L20.822 26.2855C21.1325 26.561 21.533 26.7134 21.9481 26.7141C22.13 26.714 22.3107 26.6854 22.4838 26.6295C22.7666 26.5397 23.0209 26.3775 23.2215 26.1589C23.4221 25.9402 23.5619 25.6729 23.627 25.3834L27.9759 6.46425C28.0148 6.29363 28.0065 6.11564 27.952 5.94935C27.8974 5.78307 27.7986 5.63476 27.6662 5.52033ZM21.1156 9.37745L11.5167 16.2517L6.20246 15.2092L21.1156 9.37745ZM12.5721 24.1427V19.0556L15.2281 21.3849L12.5721 24.1427ZM21.9502 24.9998L13.0917 17.232L25.8416 8.09389L21.9502 24.9998Z" fill="white"/>
</svg>
