<svg width="40" height="40" viewBox="0 0 40 40" fill="none" xmlns="http://www.w3.org/2000/svg">
<path d="M32.8808 31.3165C30.8683 27.8388 27.7089 25.3986 24.0377 24.3637C25.8226 23.4564 27.2498 21.9745 28.0894 20.1568C28.9289 18.3391 29.1318 16.2916 28.6653 14.3445C28.1988 12.3974 27.0902 10.6642 25.5181 9.42426C23.946 8.18434 22.0022 7.51001 20 7.51001C17.9978 7.51001 16.054 8.18434 14.4819 9.42426C12.9098 10.6642 11.8012 12.3974 11.3347 14.3445C10.8682 16.2916 11.0711 18.3391 11.9106 20.1568C12.7502 21.9745 14.1774 23.4564 15.9623 24.3637C12.2911 25.3973 9.13171 27.8375 7.11921 31.3165C7.06395 31.4034 7.02684 31.5006 7.01013 31.6022C6.99341 31.7039 6.99742 31.8078 7.02193 31.9079C7.04644 32.0079 7.09093 32.102 7.15273 32.1844C7.21453 32.2668 7.29236 32.3359 7.38154 32.3874C7.47072 32.439 7.56941 32.472 7.67166 32.4844C7.77392 32.4968 7.87763 32.4884 7.97656 32.4597C8.07549 32.431 8.16759 32.3826 8.24732 32.3174C8.32705 32.2522 8.39277 32.1715 8.44051 32.0802C10.8858 27.8554 15.2061 25.3337 20 25.3337C24.7939 25.3337 29.1142 27.8554 31.5595 32.0802C31.6072 32.1715 31.673 32.2522 31.7527 32.3174C31.8324 32.3826 31.9245 32.431 32.0234 32.4597C32.1224 32.4884 32.2261 32.4968 32.3283 32.4844C32.4306 32.472 32.5293 32.439 32.6185 32.3874C32.7076 32.3359 32.7855 32.2668 32.8473 32.1844C32.9091 32.102 32.9536 32.0079 32.9781 31.9079C33.0026 31.8078 33.0066 31.7039 32.9899 31.6022C32.9732 31.5006 32.9361 31.4034 32.8808 31.3165ZM12.617 16.4232C12.617 14.9629 13.05 13.5355 13.8613 12.3214C14.6725 11.1073 15.8256 10.161 17.1746 9.60215C18.5237 9.04335 20.0082 8.89714 21.4404 9.18202C22.8725 9.46689 24.188 10.1701 25.2206 11.2026C26.2531 12.2351 26.9563 13.5506 27.2411 14.9828C27.526 16.415 27.3798 17.8994 26.821 19.2485C26.2622 20.5976 25.3159 21.7506 24.1018 22.5619C22.8876 23.3732 21.4602 23.8062 20 23.8062C18.0426 23.8038 16.1661 23.0252 14.782 21.6411C13.398 20.2571 12.6194 18.3805 12.617 16.4232Z" fill="black"/>
</svg>
