<svg width="26" height="24" viewBox="0 0 26 24" fill="none" xmlns="http://www.w3.org/2000/svg">
<path d="M10.4915 22.0354C10.4915 22.3512 10.3979 22.6598 10.2224 22.9224C10.047 23.1849 9.79767 23.3896 9.50594 23.5104C9.21421 23.6313 8.8932 23.6629 8.5835 23.6013C8.27381 23.5397 7.98933 23.3876 7.76605 23.1643C7.54277 22.941 7.39072 22.6566 7.32912 22.3469C7.26751 22.0372 7.29913 21.7162 7.41997 21.4244C7.54081 21.1327 7.74544 20.8834 8.00799 20.7079C8.27053 20.5325 8.57921 20.4389 8.89497 20.4389C9.3184 20.4389 9.72449 20.6071 10.0239 20.9065C10.3233 21.2059 10.4915 21.612 10.4915 22.0354ZM20.7549 20.4389C20.4392 20.4389 20.1305 20.5325 19.868 20.7079C19.6054 20.8834 19.4008 21.1327 19.2799 21.4244C19.1591 21.7162 19.1275 22.0372 19.1891 22.3469C19.2507 22.6566 19.4027 22.941 19.626 23.1643C19.8493 23.3876 20.1338 23.5397 20.4435 23.6013C20.7532 23.6629 21.0742 23.6313 21.3659 23.5104C21.6576 23.3896 21.907 23.1849 22.0824 22.9224C22.2578 22.6598 22.3515 22.3512 22.3515 22.0354C22.3515 21.612 22.1833 21.2059 21.8839 20.9065C21.5844 20.6071 21.1784 20.4389 20.7549 20.4389ZM25.9699 5.81463L22.7175 16.3871C22.5617 16.9004 22.2446 17.3499 21.8132 17.6689C21.3819 17.9879 20.8592 18.1594 20.3227 18.1581H9.35911C8.81361 18.1561 8.28348 17.9771 7.84837 17.6481C7.41325 17.3191 7.09663 16.8578 6.94606 16.3335L2.82244 1.90198C2.80878 1.8542 2.77989 1.8122 2.74016 1.78235C2.70043 1.7525 2.65204 1.73645 2.60235 1.73662H0.684229C0.50276 1.73662 0.328724 1.66453 0.200406 1.53622C0.0720882 1.4079 0 1.23386 0 1.05239C0 0.870924 0.0720882 0.696888 0.200406 0.56857C0.328724 0.440252 0.50276 0.368164 0.684229 0.368164H2.60235C2.94898 0.369099 3.28595 0.482419 3.56271 0.691119C3.83947 0.899819 4.04109 1.19264 4.1373 1.52565L5.11005 4.92969H25.3165C25.4234 4.9298 25.5289 4.95498 25.6244 5.00323C25.7198 5.05147 25.8027 5.12143 25.8662 5.20748C25.9297 5.29353 25.9722 5.39328 25.9902 5.49872C26.0082 5.60417 26.0013 5.71236 25.9699 5.81463ZM24.3905 6.29815H5.5012L8.26206 15.9629C8.33022 16.2012 8.47418 16.4108 8.67213 16.56C8.87008 16.7092 9.11124 16.7898 9.35911 16.7897H20.3193C20.5632 16.7897 20.8008 16.7115 20.997 16.5666C21.1932 16.4217 21.3378 16.2177 21.4095 15.9845L24.3905 6.29815Z" fill="#E68314"/>
</svg>
